<svg data-v-423bf9ae="" xmlns="http://www.w3.org/2000/svg" viewBox="0 0 873 99" class="iconLeft"><!----><!----><!----><g data-v-423bf9ae="" id="f6461817-d50b-4e27-a435-c0cd4ebf3d5e" fill="black" transform="matrix(5.7915059834320255,0,0,5.7915059834320255,90.6206055021762,19.420424938201904)"><path d="M1.43 10.22L2.35 10.22L2.35 0.57L1.43 0.57ZM7.84 3.54C6.82 3.54 6.12 4.17 5.80 5.28L5.80 3.68L4.89 3.68L4.89 10.22L5.80 10.22L5.80 7.76C5.80 6.15 6.27 4.41 7.83 4.41C8.06 4.41 8.37 4.45 8.71 4.59L8.88 3.74C8.62 3.61 8.20 3.54 7.84 3.54ZM12.77 10.36C14.63 10.36 16.20 9.00 16.20 6.93C16.20 4.86 14.63 3.54 12.77 3.54C10.91 3.54 9.35 4.86 9.35 6.93C9.35 9.00 10.91 10.36 12.77 10.36ZM12.77 9.51C11.38 9.51 10.25 8.48 10.25 6.93C10.25 5.39 11.38 4.40 12.77 4.40C14.14 4.40 15.30 5.39 15.30 6.93C15.30 8.48 14.14 9.51 12.77 9.51ZM21.14 3.54C20.33 3.54 19.26 3.92 18.87 4.86L18.87 3.68L17.98 3.68L17.98 10.22L18.87 10.22L18.87 6.59C18.90 5.01 20.01 4.42 21.06 4.42C22.11 4.42 22.90 5.19 22.90 6.45L22.90 10.22L23.80 10.22L23.80 6.41C23.80 4.61 22.72 3.54 21.14 3.54ZM29.44 3.54C28.34 3.54 27.33 4.06 26.84 4.96L26.84 0L25.94 0L25.94 10.22L26.84 10.22L26.84 8.93C27.31 9.83 28.35 10.36 29.44 10.36C31.28 10.36 32.76 8.93 32.76 6.94C32.76 4.96 31.28 3.54 29.44 3.54ZM29.37 9.51C28.01 9.51 26.84 8.48 26.84 6.97C26.84 5.39 28.07 4.40 29.37 4.40C30.76 4.40 31.88 5.49 31.88 6.93C31.88 8.39 30.76 9.51 29.37 9.51ZM37.52 10.36C39.38 10.36 40.95 9.00 40.95 6.93C40.95 4.86 39.38 3.54 37.52 3.54C35.66 3.54 34.10 4.86 34.10 6.93C34.10 9.00 35.66 10.36 37.52 10.36ZM37.52 9.51C36.13 9.51 35 8.48 35 6.93C35 5.39 36.13 4.40 37.52 4.40C38.89 4.40 40.05 5.39 40.05 6.93C40.05 8.48 38.89 9.51 37.52 9.51ZM47.56 3.68L47.56 7.31C47.54 8.89 46.42 9.48 45.39 9.48C44.32 9.48 43.54 8.71 43.54 7.45L43.54 3.68L42.64 3.68L42.64 7.49C42.63 9.30 43.71 10.36 45.29 10.36C46.10 10.36 47.17 10.00 47.56 9.07L47.56 10.22L48.45 10.22L48.45 3.68ZM53.86 3.54C53.05 3.54 51.98 3.92 51.59 4.86L51.59 3.68L50.69 3.68L50.69 10.22L51.59 10.22L51.59 6.59C51.62 5.01 52.72 4.42 53.77 4.42C54.82 4.42 55.62 5.19 55.62 6.45L55.62 10.22L56.52 10.22L56.52 6.41C56.52 4.61 55.44 3.54 53.86 3.54ZM64.13 0L64.13 4.94C63.64 4.06 62.64 3.54 61.53 3.54C59.70 3.54 58.21 4.96 58.21 6.94C58.21 8.93 59.71 10.36 61.53 10.36C62.62 10.36 63.64 9.84 64.13 8.95L64.13 10.22L65.03 10.22L65.03 0ZM61.60 9.51C60.23 9.51 59.11 8.39 59.11 6.93C59.11 5.49 60.23 4.40 61.60 4.40C62.90 4.40 64.13 5.39 64.13 6.97C64.13 8.48 62.96 9.51 61.60 9.51ZM75.39 10.36C76.75 10.36 77.97 9.80 78.81 8.90L78.15 8.32C77.45 9.04 76.47 9.49 75.39 9.49C73.19 9.49 71.47 7.66 71.47 5.42C71.47 3.18 73.19 1.34 75.39 1.34C76.47 1.34 77.46 1.79 78.15 2.52L78.81 1.93C77.97 1.04 76.75 0.48 75.39 0.48C72.69 0.48 70.55 2.69 70.55 5.42C70.55 8.15 72.69 10.36 75.39 10.36ZM83.36 10.36C85.22 10.36 86.79 9.00 86.79 6.93C86.79 4.86 85.22 3.54 83.36 3.54C81.49 3.54 79.94 4.86 79.94 6.93C79.94 9.00 81.49 10.36 83.36 10.36ZM83.36 9.51C81.97 9.51 80.84 8.48 80.84 6.93C80.84 5.39 81.97 4.40 83.36 4.40C84.73 4.40 85.89 5.39 85.89 6.93C85.89 8.48 84.73 9.51 83.36 9.51ZM91.41 0.85L91.90 0.85L91.90 0L91.28 0C89.57 0 88.93 1.19 88.93 2.83L88.93 3.68L87.64 3.68L87.64 4.45L88.93 4.45L88.93 10.22L89.82 10.22L89.82 4.45L91.49 4.45L91.49 3.68L89.82 3.68L89.82 2.73C89.82 1.68 90.17 0.85 91.41 0.85ZM95.82 0.85L96.31 0.85L96.31 0L95.69 0C93.98 0 93.34 1.19 93.34 2.83L93.34 3.68L92.05 3.68L92.05 4.45L93.34 4.45L93.34 10.22L94.23 10.22L94.23 4.45L95.90 4.45L95.90 3.68L94.23 3.68L94.23 2.73C94.23 1.68 94.58 0.85 95.82 0.85ZM103.19 6.93C103.19 4.86 101.84 3.54 99.97 3.54C98.13 3.54 96.64 4.86 96.64 6.93C96.64 9.00 98.13 10.36 99.97 10.36C101.21 10.36 102.33 9.77 102.90 8.72L102.13 8.39C101.70 9.10 100.90 9.51 100.00 9.51C98.69 9.51 97.71 8.72 97.55 7.32L103.18 7.32C103.19 7.20 103.19 7.06 103.19 6.93ZM97.57 6.55C97.73 5.15 98.69 4.40 99.97 4.40C101.25 4.40 102.19 5.19 102.31 6.55ZM111.05 6.93C111.05 4.86 109.69 3.54 107.83 3.54C105.98 3.54 104.50 4.86 104.50 6.93C104.50 9.00 105.98 10.36 107.83 10.36C109.06 10.36 110.18 9.77 110.75 8.72L109.98 8.39C109.55 9.10 108.75 9.51 107.86 9.51C106.54 9.51 105.56 8.72 105.41 7.32L111.03 7.32C111.05 7.20 111.05 7.06 111.05 6.93ZM105.42 6.55C105.59 5.15 106.54 4.40 107.83 4.40C109.10 4.40 110.04 5.19 110.17 6.55ZM120.92 10.36C122.28 10.36 123.49 9.80 124.33 8.90L123.68 8.32C122.98 9.04 122.00 9.49 120.92 9.49C118.72 9.49 117.00 7.66 117.00 5.42C117.00 3.18 118.72 1.34 120.92 1.34C122.00 1.34 122.99 1.79 123.68 2.52L124.33 1.93C123.49 1.04 122.28 0.48 120.92 0.48C118.22 0.48 116.07 2.69 116.07 5.42C116.07 8.15 118.22 10.36 120.92 10.36ZM128.88 10.36C130.75 10.36 132.31 9.00 132.31 6.93C132.31 4.86 130.75 3.54 128.88 3.54C127.02 3.54 125.47 4.86 125.47 6.93C125.47 9.00 127.02 10.36 128.88 10.36ZM128.88 9.51C127.50 9.51 126.36 8.48 126.36 6.93C126.36 5.39 127.50 4.40 128.88 4.40C130.26 4.40 131.42 5.39 131.42 6.93C131.42 8.48 130.26 9.51 128.88 9.51ZM134.33 10.36C134.74 10.36 135.06 10.08 135.06 9.70C135.06 9.31 134.74 9.03 134.33 9.03C133.95 9.03 133.63 9.31 133.63 9.70C133.63 10.08 133.95 10.36 134.33 10.36Z"></path></g><!----><g data-v-423bf9ae="" id="4949ee8d-478c-4e69-8c1f-7174890d324d" transform="matrix(1.0479654947916666,0,0,1.0479654947916666,-15.176229234505442,-2.5562688247455867)" stroke="none" fill="black"><path d="M59.736 97.149H29.222c-4.313 0-8.213-3.487-8.694-7.774l-5.363-47.881c-.24-2.143.387-4.173 1.767-5.716 1.379-1.542 3.327-2.392 5.484-2.392H37.63c4.401 0 7.981 3.581 7.981 7.981v9.798c0 3.08 2.159 7.137 4.714 8.857l.705.475c3.385 2.28 6.037 7.264 6.037 11.346v10.222c0 4.401-3.58 7.981-7.981 7.981H38.649c-4.401 0-7.981-3.58-7.981-7.981v-8.458c0-4.066 2.356-8.943 5.364-11.104l4.739-3.403a1.5 1.5 0 0 1 1.751 2.436l-4.74 3.405c-2.23 1.602-4.114 5.57-4.114 8.667v8.458a4.987 4.987 0 0 0 4.981 4.981h10.437a4.986 4.986 0 0 0 4.981-4.981V71.843c0-3.081-2.158-7.137-4.714-8.857l-.705-.475c-3.385-2.28-6.038-7.264-6.038-11.346v-9.798a4.987 4.987 0 0 0-4.981-4.981H22.416c-1.292 0-2.445.494-3.248 1.392-.803.897-1.166 2.099-1.021 3.382l5.363 47.881c.31 2.769 2.926 5.108 5.712 5.108h30.515c2.794 0 5.44-2.343 5.779-5.115l.412-3.364c.332-2.713 1.473-4.708 3.131-5.474 1.154-.533 2.423-.412 3.57.345 1.308.864 4.496.661 6.979-1.01 2.46-1.654 5.091-5.683 5.746-8.798l1.916-9.106c.614-2.923-.908-6.873-3.324-8.627l-.102-.073c-2.297-1.668-5.992-1.436-8.065.507l-.132.123c-2.257 2.113-3.836 1.971-4.763 1.476-.926-.494-1.926-1.725-1.427-4.781l1.58-9.692c.206-1.261-.089-2.434-.829-3.305s-1.852-1.351-3.128-1.351H50.604c-3.198 0-4.266-1.424-4.617-2.272-.351-.849-.603-2.61 1.659-4.871l.872-.872a4.945 4.945 0 0 0 1.451-3.522 4.943 4.943 0 0 0-1.451-3.522l-3.952-3.951c-3.112-3.112-3.621-7.667-1.134-10.153L46.88 3.29a1.5 1.5 0 1 1 2.121 2.121L45.553 8.86c-.577.576-.813 1.468-.665 2.512.167 1.184.823 2.423 1.799 3.399l3.952 3.951c1.503 1.502 2.33 3.506 2.33 5.644s-.828 4.142-2.33 5.644l-.873.872c-.934.934-1.033 1.512-1.007 1.604.046.08.524.418 1.845.418H67.08c2.171 0 4.094.855 5.414 2.408 1.319 1.552 1.854 3.588 1.504 5.731l-1.58 9.692c-.126.769-.104 1.26-.057 1.528.249-.11.669-.366 1.237-.898l.132-.123c3.104-2.907 8.435-3.24 11.879-.74l.102.073c3.379 2.453 5.354 7.58 4.494 11.67l-1.916 9.106c-.818 3.891-3.896 8.578-7.008 10.671-3.292 2.212-7.82 2.665-10.305 1.023-.387-.255-.571-.168-.659-.126-.526.243-1.192 1.322-1.411 3.115l-.412 3.364c-.523 4.274-4.451 7.751-8.758 7.751z"></path></g><!----></svg>