<svg data-v-423bf9ae="" xmlns="http://www.w3.org/2000/svg" viewBox="0 0 773.9189728448594 60" class="font"><!----><!----><!----><g data-v-423bf9ae="" id="d422ba86-397f-44e9-aebe-17b8e5411004" fill="black" transform="matrix(5.7915059834320255,0,0,5.7915059834320255,-8.281860318136296,-4.76837158203125e-7)"><path d="M1.43 10.22L2.35 10.22L2.35 0.57L1.43 0.57ZM7.84 3.54C6.82 3.54 6.12 4.17 5.80 5.28L5.80 3.68L4.89 3.68L4.89 10.22L5.80 10.22L5.80 7.76C5.80 6.15 6.27 4.41 7.83 4.41C8.06 4.41 8.37 4.45 8.71 4.59L8.88 3.74C8.62 3.61 8.20 3.54 7.84 3.54ZM12.77 10.36C14.63 10.36 16.20 9.00 16.20 6.93C16.20 4.86 14.63 3.54 12.77 3.54C10.91 3.54 9.35 4.86 9.35 6.93C9.35 9.00 10.91 10.36 12.77 10.36ZM12.77 9.51C11.38 9.51 10.25 8.48 10.25 6.93C10.25 5.39 11.38 4.40 12.77 4.40C14.14 4.40 15.30 5.39 15.30 6.93C15.30 8.48 14.14 9.51 12.77 9.51ZM21.14 3.54C20.33 3.54 19.26 3.92 18.87 4.86L18.87 3.68L17.98 3.68L17.98 10.22L18.87 10.22L18.87 6.59C18.90 5.01 20.01 4.42 21.06 4.42C22.11 4.42 22.90 5.19 22.90 6.45L22.90 10.22L23.80 10.22L23.80 6.41C23.80 4.61 22.72 3.54 21.14 3.54ZM29.44 3.54C28.34 3.54 27.33 4.06 26.84 4.96L26.84 0L25.94 0L25.94 10.22L26.84 10.22L26.84 8.93C27.31 9.83 28.35 10.36 29.44 10.36C31.28 10.36 32.76 8.93 32.76 6.94C32.76 4.96 31.28 3.54 29.44 3.54ZM29.37 9.51C28.01 9.51 26.84 8.48 26.84 6.97C26.84 5.39 28.07 4.40 29.37 4.40C30.76 4.40 31.88 5.49 31.88 6.93C31.88 8.39 30.76 9.51 29.37 9.51ZM37.52 10.36C39.38 10.36 40.95 9.00 40.95 6.93C40.95 4.86 39.38 3.54 37.52 3.54C35.66 3.54 34.10 4.86 34.10 6.93C34.10 9.00 35.66 10.36 37.52 10.36ZM37.52 9.51C36.13 9.51 35 8.48 35 6.93C35 5.39 36.13 4.40 37.52 4.40C38.89 4.40 40.05 5.39 40.05 6.93C40.05 8.48 38.89 9.51 37.52 9.51ZM47.56 3.68L47.56 7.31C47.54 8.89 46.42 9.48 45.39 9.48C44.32 9.48 43.54 8.71 43.54 7.45L43.54 3.68L42.64 3.68L42.64 7.49C42.63 9.30 43.71 10.36 45.29 10.36C46.10 10.36 47.17 10.00 47.56 9.07L47.56 10.22L48.45 10.22L48.45 3.68ZM53.86 3.54C53.05 3.54 51.98 3.92 51.59 4.86L51.59 3.68L50.69 3.68L50.69 10.22L51.59 10.22L51.59 6.59C51.62 5.01 52.72 4.42 53.77 4.42C54.82 4.42 55.62 5.19 55.62 6.45L55.62 10.22L56.52 10.22L56.52 6.41C56.52 4.61 55.44 3.54 53.86 3.54ZM64.13 0L64.13 4.94C63.64 4.06 62.64 3.54 61.53 3.54C59.70 3.54 58.21 4.96 58.21 6.94C58.21 8.93 59.71 10.36 61.53 10.36C62.62 10.36 63.64 9.84 64.13 8.95L64.13 10.22L65.03 10.22L65.03 0ZM61.60 9.51C60.23 9.51 59.11 8.39 59.11 6.93C59.11 5.49 60.23 4.40 61.60 4.40C62.90 4.40 64.13 5.39 64.13 6.97C64.13 8.48 62.96 9.51 61.60 9.51ZM75.39 10.36C76.75 10.36 77.97 9.80 78.81 8.90L78.15 8.32C77.45 9.04 76.47 9.49 75.39 9.49C73.19 9.49 71.47 7.66 71.47 5.42C71.47 3.18 73.19 1.34 75.39 1.34C76.47 1.34 77.46 1.79 78.15 2.52L78.81 1.93C77.97 1.04 76.75 0.48 75.39 0.48C72.69 0.48 70.55 2.69 70.55 5.42C70.55 8.15 72.69 10.36 75.39 10.36ZM83.36 10.36C85.22 10.36 86.79 9.00 86.79 6.93C86.79 4.86 85.22 3.54 83.36 3.54C81.49 3.54 79.94 4.86 79.94 6.93C79.94 9.00 81.49 10.36 83.36 10.36ZM83.36 9.51C81.97 9.51 80.84 8.48 80.84 6.93C80.84 5.39 81.97 4.40 83.36 4.40C84.73 4.40 85.89 5.39 85.89 6.93C85.89 8.48 84.73 9.51 83.36 9.51ZM91.41 0.85L91.90 0.85L91.90 0L91.28 0C89.57 0 88.93 1.19 88.93 2.83L88.93 3.68L87.64 3.68L87.64 4.45L88.93 4.45L88.93 10.22L89.82 10.22L89.82 4.45L91.49 4.45L91.49 3.68L89.82 3.68L89.82 2.73C89.82 1.68 90.17 0.85 91.41 0.85ZM95.82 0.85L96.31 0.85L96.31 0L95.69 0C93.98 0 93.34 1.19 93.34 2.83L93.34 3.68L92.05 3.68L92.05 4.45L93.34 4.45L93.34 10.22L94.23 10.22L94.23 4.45L95.90 4.45L95.90 3.68L94.23 3.68L94.23 2.73C94.23 1.68 94.58 0.85 95.82 0.85ZM103.19 6.93C103.19 4.86 101.84 3.54 99.97 3.54C98.13 3.54 96.64 4.86 96.64 6.93C96.64 9.00 98.13 10.36 99.97 10.36C101.21 10.36 102.33 9.77 102.90 8.72L102.13 8.39C101.70 9.10 100.90 9.51 100.00 9.51C98.69 9.51 97.71 8.72 97.55 7.32L103.18 7.32C103.19 7.20 103.19 7.06 103.19 6.93ZM97.57 6.55C97.73 5.15 98.69 4.40 99.97 4.40C101.25 4.40 102.19 5.19 102.31 6.55ZM111.05 6.93C111.05 4.86 109.69 3.54 107.83 3.54C105.98 3.54 104.50 4.86 104.50 6.93C104.50 9.00 105.98 10.36 107.83 10.36C109.06 10.36 110.18 9.77 110.75 8.72L109.98 8.39C109.55 9.10 108.75 9.51 107.86 9.51C106.54 9.51 105.56 8.72 105.41 7.32L111.03 7.32C111.05 7.20 111.05 7.06 111.05 6.93ZM105.42 6.55C105.59 5.15 106.54 4.40 107.83 4.40C109.10 4.40 110.04 5.19 110.17 6.55ZM120.92 10.36C122.28 10.36 123.49 9.80 124.33 8.90L123.68 8.32C122.98 9.04 122.00 9.49 120.92 9.49C118.72 9.49 117.00 7.66 117.00 5.42C117.00 3.18 118.72 1.34 120.92 1.34C122.00 1.34 122.99 1.79 123.68 2.52L124.33 1.93C123.49 1.04 122.28 0.48 120.92 0.48C118.22 0.48 116.07 2.69 116.07 5.42C116.07 8.15 118.22 10.36 120.92 10.36ZM128.88 10.36C130.75 10.36 132.31 9.00 132.31 6.93C132.31 4.86 130.75 3.54 128.88 3.54C127.02 3.54 125.47 4.86 125.47 6.93C125.47 9.00 127.02 10.36 128.88 10.36ZM128.88 9.51C127.50 9.51 126.36 8.48 126.36 6.93C126.36 5.39 127.50 4.40 128.88 4.40C130.26 4.40 131.42 5.39 131.42 6.93C131.42 8.48 130.26 9.51 128.88 9.51ZM134.33 10.36C134.74 10.36 135.06 10.08 135.06 9.70C135.06 9.31 134.74 9.03 134.33 9.03C133.95 9.03 133.63 9.31 133.63 9.70C133.63 10.08 133.95 10.36 134.33 10.36Z"></path></g><!----><!----></svg>